<?xml version="1.0" standalone="no"?>
<!DOCTYPE svg PUBLIC "-//W3C//DTD SVG 20010904//EN"
 "http://www.w3.org/TR/2001/REC-SVG-20010904/DTD/svg10.dtd">
<svg version="1.0" xmlns="http://www.w3.org/2000/svg"
 width="2404.000000pt" height="2404.000000pt" viewBox="0 0 2404.000000 2404.000000"
 preserveAspectRatio="xMidYMid meet">
<metadata>
Created by potrace 1.14, written by Peter Selinger 2001-2017
</metadata>
<g transform="translate(0.000000,2404.000000) scale(0.100000,-0.100000)"
fill="#000000" stroke="none">
<path d="M11860 23528 c-30 -10 -62 -20 -70 -23 -8 -2 -16 -4 -17 -5 -2 -2 -6
-3 -10 -4 -5 -1 -34 -14 -67 -29 -32 -15 -63 -27 -68 -27 -5 0 -36 -13 -69
-29 -32 -17 -59 -27 -59 -24 0 3 -6 1 -12 -4 -7 -6 -56 -25 -108 -43 -52 -17
-111 -44 -130 -58 -45 -34 -234 -224 -325 -327 -38 -43 -82 -91 -97 -107 -16
-15 -28 -30 -28 -33 0 -3 -8 -13 -17 -23 -21 -21 -96 -108 -148 -172 -20 -25
-48 -59 -63 -76 -15 -16 -36 -43 -47 -58 -11 -15 -28 -37 -39 -49 -10 -12 -30
-38 -45 -57 -14 -19 -28 -37 -31 -40 -4 -3 -19 -23 -36 -45 -16 -22 -33 -45
-39 -52 -21 -25 -31 -39 -70 -93 -22 -30 -43 -59 -47 -65 -5 -5 -117 -156
-249 -335 -133 -179 -245 -327 -248 -330 -3 -3 -19 -23 -36 -45 -16 -22 -34
-45 -40 -51 -5 -6 -23 -29 -40 -50 -111 -142 -250 -280 -310 -308 -44 -20 -64
-23 -165 -22 l-115 2 -45 -46 c-79 -78 -132 -203 -123 -288 10 -104 11 -191 3
-228 -5 -21 -11 -55 -15 -74 -10 -55 -12 -63 -19 -100 -4 -19 -9 -44 -11 -55
-2 -11 -4 -22 -5 -25 -9 -26 3 -119 21 -158 25 -54 26 -59 36 -132 10 -73 8
-1342 -2 -1840 -10 -494 -12 -1589 -2 -1855 7 -196 10 -245 22 -415 10 -140
12 -163 19 -220 14 -124 25 -193 43 -280 8 -41 16 -79 17 -85 1 -5 5 -16 9
-22 5 -7 6 -13 4 -13 -6 0 15 -66 36 -120 8 -19 20 -50 26 -67 7 -18 17 -33
22 -33 5 0 8 -3 7 -7 -5 -15 35 -69 65 -90 18 -12 51 -26 74 -31 38 -9 207 -8
273 1 78 11 176 53 260 111 53 36 150 131 150 146 0 5 3 10 8 10 9 0 41 67 47
99 2 13 11 34 20 47 8 13 15 28 15 34 0 10 126 219 139 230 3 3 26 34 51 70
24 36 48 70 52 75 5 6 31 39 58 75 84 108 87 112 162 205 87 107 101 123 153
184 22 26 63 73 90 105 28 32 64 73 80 91 17 18 68 74 115 125 143 156 400
408 400 393 0 -5 5 0 10 9 6 9 41 37 79 62 68 45 110 58 112 34 0 -7 3 -22 5
-33 2 -11 6 -47 9 -80 3 -33 7 -82 10 -110 10 -102 21 -266 30 -440 2 -38 6
-122 10 -185 3 -63 8 -151 10 -195 3 -44 7 -114 9 -155 3 -41 7 -118 11 -170
3 -52 7 -120 10 -150 5 -67 14 -189 21 -290 3 -41 7 -97 9 -125 2 -27 6 -77 9
-110 12 -149 21 -244 32 -330 18 -139 31 -304 48 -605 19 -330 29 -533 41
-800 3 -63 8 -162 11 -220 3 -58 7 -152 9 -210 2 -58 6 -161 9 -230 3 -69 8
-183 11 -255 3 -71 7 -179 10 -240 5 -119 14 -326 20 -500 2 -60 7 -173 10
-250 5 -132 11 -297 20 -550 2 -60 7 -171 10 -245 3 -74 7 -196 10 -270 2 -74
7 -202 10 -285 4 -82 8 -203 9 -268 2 -65 6 -120 8 -123 3 -3 2 -21 -2 -40 -4
-18 -5 -34 -1 -34 3 0 6 -33 7 -73 1 -39 5 -171 9 -292 15 -402 11 -643 -11
-737 -19 -82 -91 -70 -221 37 -7 6 -18 15 -25 20 -126 102 -184 150 -190 159
-4 6 -8 7 -8 3 0 -4 -11 3 -24 17 -13 15 -28 26 -34 26 -6 0 -12 3 -14 8 -4
10 -105 92 -113 92 -4 0 -20 13 -37 30 -16 17 -33 30 -36 30 -4 0 -20 11 -36
25 -16 14 -32 25 -35 25 -3 0 -19 13 -36 28 -16 15 -45 37 -62 47 -18 11 -33
23 -33 27 0 4 -5 8 -11 8 -6 0 -17 7 -25 15 -9 8 -46 36 -82 62 -37 26 -69 50
-72 53 -3 3 -52 39 -110 80 -58 41 -107 77 -110 80 -3 4 -39 28 -80 56 -41 27
-86 59 -100 71 -14 13 -29 23 -33 23 -5 0 -26 14 -47 30 -21 17 -43 30 -49 30
-6 0 -11 3 -11 8 0 4 -23 21 -51 37 -28 17 -57 36 -64 43 -8 6 -18 12 -24 12
-6 0 -11 5 -11 10 0 6 -4 10 -9 10 -5 0 -47 23 -93 52 -143 88 -335 168 -452
186 -65 10 -122 -7 -112 -34 18 -47 17 -63 -2 -73 -12 -6 -30 -11 -42 -11 -74
0 -240 -196 -240 -282 0 -22 8 -31 73 -83 23 -18 71 -45 167 -93 108 -55 257
-138 270 -152 3 -3 30 -21 60 -40 30 -19 67 -43 82 -54 14 -12 49 -37 78 -56
28 -19 59 -42 69 -50 11 -8 29 -22 41 -30 48 -33 156 -112 173 -125 9 -8 22
-15 27 -15 6 0 10 -4 10 -9 0 -4 19 -21 43 -37 23 -16 63 -45 88 -64 25 -19
58 -44 73 -55 15 -11 40 -30 54 -42 15 -13 30 -23 34 -23 4 0 13 -6 20 -13 7
-7 40 -33 73 -57 33 -25 66 -51 73 -58 8 -6 34 -26 59 -44 25 -17 54 -39 65
-50 10 -10 21 -18 26 -18 4 0 18 -10 32 -23 14 -12 41 -34 60 -47 43 -30 56
-40 81 -63 10 -9 23 -17 28 -17 5 0 11 -3 13 -7 2 -5 21 -21 43 -38 46 -34 50
-37 90 -68 17 -13 84 -64 150 -115 66 -50 130 -100 142 -111 12 -12 25 -21 28
-21 7 0 15 -6 75 -60 25 -22 48 -40 51 -40 3 0 19 -12 35 -26 16 -14 44 -37
63 -52 64 -49 178 -167 204 -208 39 -63 48 -111 52 -287 10 -371 15 -534 20
-742 2 -121 7 -317 10 -435 3 -118 8 -321 10 -450 3 -129 7 -250 8 -268 2 -17
-2 -32 -7 -32 -7 0 -8 -3 -1 -8 6 -4 11 -56 12 -117 1 -115 9 -402 19 -665 3
-85 7 -204 9 -265 6 -186 17 -417 31 -640 4 -55 7 -118 9 -141 1 -22 4 -44 6
-50 3 -5 5 -30 5 -56 -1 -27 1 -48 4 -48 3 0 6 -15 6 -33 2 -45 14 -111 23
-120 15 -16 40 6 65 58 31 62 58 145 79 240 4 17 9 41 11 55 3 14 7 34 9 45 7
32 20 108 22 135 3 30 15 125 20 160 7 56 37 166 54 206 11 23 33 54 49 69 28
25 58 81 68 130 4 18 8 64 19 260 1 28 4 50 5 50 1 0 3 20 5 45 3 51 14 150
21 195 3 17 7 55 9 85 2 30 5 55 5 55 3 0 11 44 15 85 2 25 6 62 9 83 4 20 8
52 10 70 13 90 18 127 27 182 6 33 12 74 13 90 5 44 17 135 22 159 2 12 7 41
10 66 3 25 7 56 10 70 14 88 30 229 40 350 3 36 7 83 9 105 2 22 6 83 9 135 3
52 8 127 11 165 5 67 14 225 19 330 5 128 49 120 355 -70 9 -6 27 -18 41 -26
120 -78 201 -128 230 -145 19 -10 36 -22 38 -26 2 -5 10 -8 18 -8 8 0 14 -4
14 -8 0 -5 15 -16 33 -25 42 -22 80 -45 150 -90 31 -20 60 -37 63 -37 3 0 32
-18 64 -40 32 -22 61 -40 64 -40 9 0 111 -65 114 -72 2 -5 8 -8 13 -8 5 0 52
-27 105 -60 52 -33 98 -60 101 -60 3 0 20 -10 37 -23 17 -13 64 -43 105 -67
40 -25 85 -53 100 -62 14 -10 33 -21 41 -25 8 -4 20 -11 25 -15 9 -7 417 -279
454 -303 9 -5 18 -13 21 -16 3 -3 41 -32 85 -65 44 -33 121 -91 170 -130 50
-38 104 -80 121 -92 l32 -22 83 42 c46 23 86 42 89 42 17 3 180 89 190 101 7
8 18 15 24 15 7 0 22 9 34 20 12 12 22 18 22 15 0 -4 14 9 30 27 36 39 35 51
-17 172 -102 240 -189 365 -354 511 -38 33 -255 195 -262 195 -3 0 -48 27
-100 60 -53 33 -101 60 -106 60 -6 0 -11 5 -11 10 0 6 -4 10 -9 10 -5 0 -46
21 -92 47 -90 51 -143 78 -357 188 -75 39 -138 73 -140 78 -2 4 -12 7 -23 7
-10 0 -19 4 -19 8 0 7 -63 35 -67 30 -1 -2 -9 6 -17 17 -9 11 -16 16 -16 12 0
-5 -15 0 -32 11 -18 11 -72 40 -119 66 -48 25 -111 59 -140 75 -30 17 -70 38
-89 47 -19 10 -62 34 -95 53 -33 19 -61 33 -61 30 -1 -2 -10 3 -20 11 -11 9
-44 29 -74 45 -30 16 -68 37 -85 47 -16 10 -37 21 -45 25 -8 3 -17 9 -20 12
-3 3 -21 14 -40 25 -62 33 -104 57 -135 76 -16 11 -52 31 -80 46 -27 15 -51
30 -53 35 -2 5 -8 9 -14 9 -6 0 -30 14 -55 30 -24 17 -47 30 -50 30 -4 0 -38
20 -77 43 -39 24 -93 56 -121 72 -27 16 -53 33 -57 39 -4 5 -7 285 -8 620 -1
336 -3 717 -5 846 -5 336 -19 971 -30 1360 -4 124 -8 305 -10 402 -2 97 -6
181 -9 187 -4 5 -2 12 4 16 6 4 7 11 4 17 -4 5 -8 65 -10 132 -3 150 -13 478
-19 651 -3 72 -7 204 -10 295 -3 91 -7 217 -10 280 -3 63 -7 183 -10 265 -3
83 -7 215 -10 295 -4 80 -7 188 -9 241 -1 52 -6 101 -11 109 -6 9 -4 11 5 5 9
-5 11 -4 6 4 -5 7 -10 63 -12 124 -4 117 -10 248 -19 432 -5 107 -9 172 -21
380 -3 55 -7 129 -9 165 -2 36 -4 65 -5 65 -1 0 -3 27 -5 60 -2 33 -4 60 -5
60 0 0 -3 27 -5 60 -6 76 -11 134 -20 210 -8 68 -15 152 -20 240 -2 33 -4 60
-6 60 -1 0 -3 18 -4 40 -10 138 -13 164 -19 173 -3 6 -2 13 4 17 6 4 8 11 4
16 -3 5 -8 42 -10 82 -3 40 -7 106 -9 147 -9 129 -15 529 -9 545 9 22 30 19
48 -7 9 -12 16 -18 16 -13 0 10 221 -214 380 -385 137 -147 301 -311 430 -430
57 -52 114 -105 127 -117 13 -13 26 -23 28 -23 2 0 15 -10 27 -22 13 -13 48
-43 77 -68 30 -25 65 -55 78 -67 13 -13 28 -23 33 -23 4 0 10 -4 12 -9 2 -4
59 -52 128 -105 69 -53 133 -103 143 -111 9 -8 21 -15 26 -15 5 0 14 -6 20
-14 7 -8 64 -49 129 -92 64 -43 119 -80 122 -83 3 -4 19 -13 35 -21 113 -56
268 -164 323 -224 26 -29 80 -121 83 -143 7 -42 52 -124 89 -162 53 -55 126
-71 255 -56 17 2 30 4 30 5 0 1 14 3 30 5 52 5 148 44 175 70 15 14 32 42 38
61 15 50 8 184 -15 274 -3 14 -8 32 -9 40 -2 8 -20 74 -39 145 -44 159 -45
164 -51 195 -3 14 -10 43 -16 65 -6 22 -13 48 -15 57 -1 10 -16 73 -33 140
-17 68 -32 132 -35 143 -2 11 -18 83 -35 160 -34 155 -31 141 -66 315 -14 69
-28 132 -31 140 -3 8 -7 26 -8 40 -2 14 -6 38 -10 55 -26 121 -37 173 -41 195
-8 50 -24 137 -43 235 -11 55 -23 116 -26 135 -8 43 -13 69 -18 95 -3 11 -8
42 -11 69 -4 27 -9 52 -11 56 -3 5 -15 75 -20 115 -1 11 -5 31 -8 45 -8 29
-15 76 -23 145 -3 28 -8 53 -11 58 -2 4 -6 24 -8 45 -4 35 -10 78 -20 132 -2
14 -7 48 -10 75 -3 28 -7 61 -10 75 -3 14 -7 48 -10 75 -2 28 -6 59 -9 70 -2
11 -7 58 -10 105 -4 47 -9 99 -12 115 -2 17 -6 71 -9 120 -2 50 -5 90 -6 90
-1 0 -3 25 -5 55 -2 30 -5 93 -8 140 -6 89 -14 319 -20 531 -2 70 -6 132 -10
137 -3 6 -3 13 1 15 5 3 7 29 6 59 -3 75 -4 140 -2 235 0 45 -2 87 -6 92 -3 6
-1 11 5 11 6 0 9 4 6 8 -7 12 -8 56 -1 237 11 301 20 464 30 525 3 19 8 55 10
80 3 25 10 72 16 105 6 33 13 76 16 95 13 108 15 128 16 160 1 64 -20 149 -43
170 -3 3 -11 17 -19 33 -22 42 -105 118 -153 140 -16 6 -28 15 -28 19 0 5 -3
7 -7 6 -13 -3 -97 23 -110 34 -7 6 -13 7 -13 3 0 -4 -7 -2 -15 5 -8 7 -15 9
-15 4 0 -5 -4 -4 -8 1 -4 6 -19 17 -34 25 -14 8 -57 43 -95 78 -106 97 -116
105 -153 133 -19 15 -45 35 -57 45 -11 11 -38 33 -60 50 -223 181 -354 291
-433 364 -21 19 -75 69 -120 110 -46 41 -88 80 -94 87 -6 6 -58 60 -116 120
-58 59 -135 142 -170 183 -36 41 -75 86 -88 100 -12 14 -41 51 -65 83 -23 31
-45 57 -49 57 -5 0 -8 6 -8 14 0 8 -3 16 -8 18 -4 2 -25 28 -47 58 -22 30 -43
57 -47 58 -5 2 -8 8 -8 13 0 5 -12 27 -27 48 -45 63 -124 185 -154 239 -11 17
-29 49 -40 70 -12 20 -33 57 -47 82 -13 25 -40 71 -58 103 -19 32 -34 60 -34
62 0 7 -181 309 -188 315 -4 3 -13 16 -21 30 -33 60 -138 190 -161 198 -18 7
-41 4 -80 -10z m-701 -1372 c7 -8 14 -56 16 -108 2 -51 7 -145 11 -208 4 -63
7 -143 8 -177 0 -35 3 -63 6 -63 3 0 6 -37 6 -83 1 -45 4 -116 8 -157 3 -41 8
-111 11 -155 12 -179 16 -228 21 -237 3 -4 0 -8 -6 -8 -6 0 -8 -5 -4 -12 5 -7
9 -31 10 -53 2 -22 6 -85 9 -140 8 -123 13 -208 20 -305 3 -41 7 -109 10 -150
2 -41 7 -106 10 -145 3 -38 8 -99 10 -135 2 -36 7 -103 10 -150 4 -47 8 -112
10 -145 2 -33 4 -60 5 -60 1 0 3 -31 5 -70 2 -38 6 -108 10 -155 3 -47 8 -107
10 -135 2 -27 6 -88 9 -135 5 -78 9 -129 21 -280 3 -30 7 -91 10 -135 6 -87
13 -169 21 -255 9 -98 14 -284 8 -307 -8 -29 -42 -24 -91 14 -57 46 -283 288
-283 304 0 4 -4 9 -8 11 -7 3 -55 60 -142 168 -19 24 -40 48 -45 54 -6 6 -22
27 -35 46 -13 19 -27 37 -30 40 -3 3 -19 23 -35 45 -17 22 -32 42 -35 45 -3 3
-25 32 -50 65 -24 33 -48 65 -53 70 -4 6 -62 84 -127 175 -66 91 -123 170
-127 175 -5 6 -24 33 -43 60 -19 28 -38 52 -42 53 -4 2 -8 7 -8 12 0 5 -33 56
-72 115 -71 103 -99 146 -190 288 -43 69 -53 85 -101 167 -26 45 -91 170 -93
180 0 3 -6 18 -12 33 -7 16 -12 44 -12 62 0 36 33 134 57 172 8 12 16 28 17
35 1 7 13 31 27 53 15 22 41 66 60 98 65 110 77 130 85 136 5 3 18 22 28 41
17 30 38 61 76 107 6 7 10 16 10 20 0 4 13 22 28 40 15 17 49 63 77 102 27 39
53 71 57 71 4 0 8 5 8 11 0 6 19 34 43 63 43 54 72 91 126 161 17 22 39 49 49
61 9 12 31 38 47 60 254 326 484 561 551 564 6 0 17 -6 23 -14z m1057 -358
c90 -81 197 -183 454 -438 260 -257 520 -510 525 -510 5 0 189 -176 342 -326
132 -130 143 -144 143 -177 0 -53 -41 -148 -123 -282 -48 -79 -168 -268 -188
-296 -15 -21 -129 -194 -154 -233 -66 -103 -148 -221 -156 -224 -5 -2 -9 -8
-9 -14 0 -5 -40 -68 -90 -140 -49 -71 -95 -139 -101 -151 -7 -12 -15 -24 -18
-27 -4 -3 -31 -41 -61 -85 -29 -44 -57 -81 -62 -83 -4 -2 -8 -8 -8 -13 0 -5
-19 -36 -42 -68 -24 -33 -50 -69 -58 -81 -8 -12 -26 -37 -40 -56 -14 -18 -41
-55 -60 -80 -77 -104 -127 -144 -144 -115 -3 5 -8 26 -11 47 -3 22 -7 48 -10
59 -6 32 -19 176 -19 222 -1 24 -4 43 -7 43 -3 0 -6 20 -5 45 1 25 -1 45 -4
45 -3 0 -6 24 -6 53 -2 48 -8 138 -19 282 -2 33 -7 103 -10 155 -3 52 -7 122
-10 156 -6 71 -16 241 -30 489 -6 112 -15 264 -20 337 -2 40 -7 111 -10 158
-12 193 -16 258 -20 312 -7 96 -18 290 -19 345 -1 29 -3 53 -6 53 -3 0 -6 26
-6 58 -1 31 -5 118 -9 192 -6 113 -8 307 -2 373 2 27 21 20 73 -25z m-2561
-2596 c29 -23 97 -107 145 -177 74 -110 255 -360 262 -363 5 -2 8 -8 8 -14 0
-5 6 -15 13 -22 6 -7 21 -25 32 -40 11 -16 38 -52 60 -81 22 -29 51 -67 65
-85 87 -114 176 -225 182 -228 4 -2 8 -8 8 -13 0 -5 8 -17 18 -27 9 -11 24
-28 32 -38 34 -44 95 -119 100 -124 3 -3 27 -32 55 -65 57 -68 97 -113 175
-195 124 -130 182 -202 255 -313 56 -87 57 -88 39 -109 -17 -19 -174 -179
-649 -662 -151 -154 -283 -292 -413 -434 -65 -72 -83 -92 -142 -162 -30 -36
-59 -68 -65 -72 -5 -4 -7 -8 -4 -8 4 0 -8 -17 -27 -37 -19 -20 -36 -45 -40
-55 -3 -10 -10 -18 -15 -18 -5 0 -9 -7 -9 -15 0 -8 -4 -15 -10 -15 -5 0 -10
-7 -10 -15 0 -8 -4 -15 -9 -15 -5 0 -13 -9 -16 -20 -4 -12 -25 -39 -47 -61
-85 -84 -115 -34 -136 231 -15 186 -5 2591 11 2606 4 4 2 14 -3 24 -5 10 -6
20 -3 24 4 3 8 54 9 114 2 105 13 328 18 387 2 17 4 42 5 58 1 34 34 67 61 62
11 -2 31 -13 45 -23z m4075 -206 c73 -22 123 -45 145 -69 11 -12 20 -24 21
-27 0 -3 3 -12 7 -20 14 -37 26 -89 31 -140 13 -111 18 -177 20 -241 2 -36 6
-71 10 -77 3 -6 2 -13 -4 -17 -6 -4 -7 -12 -3 -18 4 -6 8 -32 9 -57 1 -25 5
-83 8 -130 4 -47 8 -114 11 -150 2 -36 7 -90 10 -120 8 -69 12 -110 20 -185 9
-86 15 -144 21 -190 2 -22 7 -62 10 -89 6 -60 12 -112 24 -195 5 -35 8 -67 8
-70 -1 -3 2 -26 7 -51 5 -25 9 -56 10 -70 2 -14 3 -25 4 -25 1 0 4 -16 6 -35
2 -19 7 -53 10 -75 3 -22 8 -56 10 -75 5 -30 18 -107 31 -175 5 -27 21 -105
28 -135 3 -14 9 -38 12 -55 4 -16 13 -42 20 -57 8 -15 16 -37 18 -50 3 -13 5
-23 6 -23 5 0 14 -69 25 -210 3 -44 8 -91 10 -105 2 -14 7 -45 10 -70 4 -25 9
-58 12 -75 2 -16 6 -39 7 -50 2 -11 4 -20 5 -20 2 0 4 -13 5 -30 4 -40 16
-107 22 -125 3 -8 8 -28 10 -45 3 -16 9 -50 14 -75 5 -25 12 -61 15 -80 3 -19
8 -51 11 -70 8 -46 12 -113 7 -122 -4 -8 -63 11 -63 21 0 3 -12 12 -27 18 -33
15 -147 105 -282 222 -115 100 -204 184 -371 351 -189 189 -237 239 -365 385
-33 38 -67 76 -75 85 -8 8 -35 40 -60 70 -25 30 -49 60 -55 66 -28 31 -64 74
-100 119 -22 28 -42 52 -45 55 -5 5 -85 102 -107 130 -13 17 -76 95 -99 123
-8 9 -14 21 -14 26 0 5 -4 11 -8 13 -11 4 -120 148 -190 250 -84 123 -84 119
-11 240 59 99 407 628 420 638 3 3 24 33 47 68 41 62 129 187 145 207 4 6 17
24 27 40 10 17 53 77 94 135 99 138 107 149 134 182 13 15 21 28 18 28 -3 0 2
8 12 18 32 35 52 62 44 62 -4 0 -2 4 4 8 6 4 33 34 59 67 81 101 89 104 205
71z"/>
</g>
</svg>
