<?xml version="1.0" standalone="no"?>
<!DOCTYPE svg PUBLIC "-//W3C//DTD SVG 20010904//EN"
 "http://www.w3.org/TR/2001/REC-SVG-20010904/DTD/svg10.dtd">
<svg version="1.0" xmlns="http://www.w3.org/2000/svg"
 width="168.000000pt" height="451.000000pt" viewBox="0 0 168.000000 451.000000"
 preserveAspectRatio="xMidYMid meet">
<metadata>
Created by potrace 1.16, written by Peter Selinger 2001-2019
</metadata>
<g transform="translate(0.000000,451.000000) scale(0.100000,-0.100000)"
fill="#000000" stroke="none">
<path d="M800 4413 c-8 -3 -28 -11 -45 -18 -16 -8 -39 -16 -50 -19 -21 -6
-131 -130 -205 -232 -124 -170 -163 -215 -184 -213 -11 0 -28 1 -37 0 -18 -1
-44 -54 -35 -70 4 -5 2 -31 -4 -56 -8 -35 -8 -51 1 -61 8 -10 9 -105 4 -361
-7 -364 1 -514 32 -580 15 -33 24 -37 77 -33 37 2 85 37 93 67 16 66 267 352
289 330 2 -2 9 -91 14 -198 6 -107 15 -223 20 -259 8 -56 22 -355 45 -1002 7
-188 6 -190 -57 -138 -99 82 -269 204 -321 230 -53 26 -95 31 -81 9 3 -5 -2
-9 -10 -9 -15 0 -46 -36 -46 -55 0 -5 21 -20 47 -32 46 -21 102 -61 363 -260
105 -81 114 -91 116 -123 1 -19 5 -161 8 -315 7 -312 16 -475 25 -475 12 0 29
56 35 115 4 36 12 63 21 68 8 4 15 22 15 40 0 32 12 131 31 257 8 54 12 101
18 218 1 19 14 15 77 -26 33 -21 111 -69 174 -107 63 -38 142 -89 175 -115
l60 -46 48 23 c26 13 47 28 47 34 0 5 -11 31 -24 57 -28 56 -87 100 -240 177
-58 30 -153 81 -211 115 l-105 62 0 156 c-1 301 -25 1042 -39 1177 -15 142
-22 285 -14 285 5 0 42 -37 83 -82 83 -90 196 -184 276 -230 40 -22 56 -38 64
-63 13 -39 31 -47 80 -37 43 9 47 28 24 109 -35 125 -95 425 -109 553 -18 161
-19 408 -3 496 10 54 9 66 -6 88 -9 14 -29 29 -44 32 -15 4 -31 12 -37 19 -5
6 -35 31 -65 55 -141 113 -217 200 -284 323 -39 73 -76 128 -85 126 -3 0 -13
-3 -21 -6z m-120 -265 c0 -39 41 -634 46 -682 4 -35 3 -56 -3 -56 -34 0 -303
367 -303 413 0 31 66 131 170 257 62 76 90 97 90 68z m263 -121 c39 -40 99
-98 132 -128 33 -31 66 -63 73 -71 11 -14 -3 -40 -97 -180 -131 -194 -139
-203 -147 -195 -4 3 -13 104 -20 224 -7 120 -16 264 -20 321 -4 56 -4 102 0
102 3 0 39 -33 79 -73z m-516 -463 c48 -71 143 -193 177 -228 18 -18 41 -44
50 -58 l17 -26 -116 -118 c-64 -64 -128 -135 -141 -156 -44 -69 -49 -51 -48
178 0 253 5 436 11 447 8 14 22 3 50 -39z m746 -3 c23 -9 25 -15 31 -118 8
-134 35 -332 47 -355 5 -9 9 -32 9 -50 1 -18 7 -62 15 -98 7 -36 12 -67 10
-69 -7 -7 -77 51 -147 121 -79 79 -221 255 -216 267 11 30 205 310 215 310 6
1 23 -3 36 -8z"/>
</g>
</svg>
